<svg xmlns="http://www.w3.org/2000/svg" viewBox="0 0 64 64" role="img" aria-label="K4hveci icon">
  <rect width="64" height="64" rx="16" fill="#120d09"/>
  <rect x="6" y="6" width="52" height="52" rx="14" fill="none" stroke="#3a291d"/>
  <path d="M18 40h20c6 0 11-5 11-11s-5-11-11-11H18v22Z" fill="#c69463" opacity="0.18"/>
  <path d="M18 19h18c6 0 11 5 11 11s-5 11-11 11H18" fill="none" stroke="#e5d1b9" stroke-width="3.2" stroke-linecap="round" stroke-linejoin="round"/>
  <path d="M41 24h4c4 0 7 3 7 6s-3 6-7 6h-4" fill="none" stroke="#e5d1b9" stroke-width="3.2" stroke-linecap="round" stroke-linejoin="round"/>
  <path d="M14 48h34" stroke="#e5d1b9" stroke-width="3.2" stroke-linecap="round"/>
  <path d="M24 13c0-2 2-3 2-5" stroke="#89a875" stroke-width="2.6" stroke-linecap="round"/>
  <path d="M31 13c0-2 2-3 2-5" stroke="#89a875" stroke-width="2.6" stroke-linecap="round"/>
  <path d="M12 21h6" stroke="#89a875" stroke-width="2.6" stroke-linecap="round"/>
  <path d="M14 18l-3 3 3 3" fill="none" stroke="#89a875" stroke-width="2.6" stroke-linecap="round" stroke-linejoin="round"/>
</svg>